<?xml version="1.0" standalone="no"?>
<!DOCTYPE svg PUBLIC "-//W3C//DTD SVG 20010904//EN"
 "http://www.w3.org/TR/2001/REC-SVG-20010904/DTD/svg10.dtd">
<svg version="1.0" xmlns="http://www.w3.org/2000/svg"
 width="260.000000pt" height="260.000000pt" viewBox="0 0 260.000000 260.000000"
 preserveAspectRatio="xMidYMid meet">
<metadata>
Created by potrace 1.11, written by Peter Selinger 2001-2013
</metadata>
<g transform="translate(0.000000,260.000000) scale(0.100000,-0.100000)"
fill="#000000" stroke="none">
<path d="M1745 2581 c3 -11 2 -22 -2 -24 -11 -7 -11 -342 -1 -353 10 -9 43 -8
148 4 70 9 110 7 225 -9 77 -11 150 -25 161 -30 12 -6 30 -8 40 -5 14 4 22 -1
29 -17 6 -14 18 -21 30 -20 38 5 66 -8 77 -35 11 -26 11 -25 19 25 5 29 5 62
0 75 -14 36 -159 195 -184 202 -12 3 -87 9 -167 12 -164 8 -184 14 -177 52 3
14 -1 42 -8 63 -8 21 -11 47 -8 58 5 20 2 21 -92 21 -90 0 -96 -1 -90 -19z"/>
<path d="M867 2574 c-4 -4 -31 -11 -60 -16 -28 -4 -79 -12 -112 -17 -101 -16
-230 -80 -307 -153 -95 -89 -108 -111 -108 -192 0 -63 13 -108 42 -147 9 -14
5 -33 -22 -104 -28 -73 -32 -90 -21 -107 8 -13 11 -59 9 -150 -2 -128 -2 -130
22 -148 14 -11 39 -25 55 -31 40 -17 40 -16 23 -36 -41 -46 -68 -116 -68 -176
0 -65 25 -179 46 -212 6 -11 17 -45 23 -75 6 -30 20 -68 30 -84 13 -20 17 -35
11 -50 -37 -98 -44 -108 -97 -138 -96 -54 -92 -38 -95 -412 l-3 -326 673 0
672 0 0 28 c-1 37 -24 133 -40 163 -8 13 -16 53 -19 89 -6 65 -6 65 -36 63
-170 -10 -232 -7 -259 10 -35 23 -60 81 -52 121 19 101 19 104 -8 152 -33 59
-33 87 -1 108 32 21 32 39 -1 71 -25 25 -26 31 -21 90 7 73 0 85 -58 104 -75
25 -101 67 -72 117 7 11 45 63 84 115 89 116 97 143 54 191 -17 20 -31 44 -31
54 0 40 37 115 73 146 45 40 69 116 72 228 3 103 14 151 42 177 12 12 23 29
23 38 0 19 109 125 130 125 8 0 21 4 28 9 34 21 -112 205 -223 281 -53 36
-184 77 -270 85 -38 3 -81 8 -95 11 -14 3 -29 1 -33 -2z"/>
<path d="M2397 2383 c-4 -3 4 -20 16 -37 46 -61 97 -190 97 -246 0 -38 6 -60
23 -83 12 -18 32 -52 44 -77 l21 -45 1 242 1 241 -30 7 c-40 9 -70 -2 -70 -26
0 -24 -25 -25 -42 0 -14 20 -51 35 -61 24z"/>
<path d="M1465 2160 c-3 -5 -2 -10 4 -10 5 0 13 5 16 10 3 6 2 10 -4 10 -5 0
-13 -4 -16 -10z"/>
<path d="M2508 943 c-109 -126 -133 -169 -155 -276 -17 -83 -17 -90 -1 -101
11 -8 14 -17 8 -27 -12 -19 16 -29 54 -18 35 10 45 24 39 50 -3 11 0 39 6 62
10 35 20 47 54 64 23 12 52 24 65 28 22 6 22 9 22 161 0 85 -2 154 -4 154 -2
0 -42 -44 -88 -97z"/>
<path d="M4 295 c0 -165 2 -234 3 -153 2 81 2 216 0 300 -1 84 -3 18 -3 -147z"/>
<path d="M2323 464 c-10 -26 5 -173 25 -249 22 -82 50 -137 92 -183 28 -30 34
-32 95 -32 l65 0 0 69 c0 50 -4 72 -16 82 -8 7 -28 41 -44 75 -15 35 -43 79
-62 98 -44 45 -92 106 -107 134 -14 26 -39 29 -48 6z"/>
</g>
</svg>
